# xmcd CD database file
#
# Track frame offsets:
#	150
#	34013
#	59776
#	93714
#	128861
#	151080
#	184457
#	219661
#	253456
#
# Disc length: 3673 seconds
#
# Revision: 0
# Processed by: cddbd v1.5.2PL0 Copyright (c) Steve Scherf et al.
# Submitted via: CDex 1.51
#
DISCID=8c0e5709
DTITLE=Oscar Peterson Trio With Milt Jackson - Very Tall
DYEAR=1961
DGENRE=Jazz
TTITLE0=On Green Dolphin Street
TTITLE1=Heartstrings
TTITLE2=Work Song
TTITLE3=John Brown's Body
TTITLE4=A Wonderfull Guy
TTITLE5=Reunion Blues
TTITLE6=On Green Dolphin Street (Live At The London House)
TTITLE7=On Green Dolphin Street (Live à L'Olympia)
TTITLE8=Heartstrings (Original Milt Jacson Version)
EXTD=YEAR: 1961
EXTT0=
EXTT1=
EXTT2=
EXTT3=
EXTT4=
EXTT5=
EXTT6=
EXTT7=
EXTT8=
PLAYORDER=
